<svg width="26" height="26" viewBox="0 0 26 26" fill="none" xmlns="http://www.w3.org/2000/svg">
<path d="M6.46408 13.0041C10.4723 12.3102 13.7947 9.62068 15.3717 5.99496C14.2054 4.2129 13.3799 2.18447 13.0021 0C11.8563 6.62731 6.62835 11.8544 0 13.0041C6.62835 14.1539 11.8563 19.381 13.0062 26.0083C13.384 23.8238 14.2095 21.7954 15.3758 20.0133C13.7947 16.3876 10.4764 13.6981 6.46819 13.0041H6.46408ZM18.4682 5.46527C17.8029 9.30862 14.7721 12.3389 10.9282 13.0041C14.7721 13.6693 17.7988 16.6997 18.4682 20.543C19.1335 16.6997 22.1643 13.6693 26.0083 13.0041C22.1643 12.3389 19.1376 9.30862 18.4682 5.46527Z" fill="currentColor"/>
</svg>
